# xmcd CD database file
#
# Track frame offsets:
#	150
#	48701
#	105098
#	125887
#	144127
#	177632
#
# Disc length: 2595 seconds
#
# Revision: 2
# Processed by: cddbd v1.5.2PL0 Copyright (c) Steve Scherf et al.
# Submitted via: CDex 1.51
#
DISCID=510a2106
DTITLE=Johannes Brahms - Sonate pour piano en fa mineur, Op.5  (Zoltàn Kocsis, piano)
DYEAR=1900
DGENRE=Classique
TTITLE0=Sonate pour piano en fa mineur, Op.5 - I. Allegro Maestoso
TTITLE1=Sonate pour piano en fa mineur, Op.5 - II. 
TTITLE2=Sonate pour piano en fa mineur, Op.5 - III. 
TTITLE3=Sonate pour piano en fa mineur, Op.5 - IV. 
TTITLE4=Sonate pour piano en fa mineur, Op.5 - V. Finale - Allegro moderato ma rubato
TTITLE5=Hymne en hommage au grand Joachim  (Interprètres - Alpe Adria Ensemble)
EXTD=
EXTT0=
EXTT1=
EXTT2=
EXTT3=
EXTT4=
EXTT5=
PLAYORDER=
